Coordinates
version=1
nRows=11
nColumns=63
inDegrees=yes

Units are S.I. units (second, meters, Newtons, ...)
If the header above contains a line with 'inDegrees', this indicates whether rotational values are in degrees (yes) or radians (no).

endheader
time	pelvis_tilt	pelvis_list	pelvis_rotation	pelvis_tx	pelvis_ty	pelvis_tz	hip_flexion_r	hip_adduction_r	hip_rotation_r	knee_angle_r	knee_angle_r_beta	ankle_angle_r	subtalar_angle_r	mtp_angle_r	hip_flexion_l	hip_adduction_l	hip_rotation_l	knee_angle_l	knee_angle_l_beta	ankle_angle_l	subtalar_angle_l	mtp_angle_l	L5_S1_Flex_Ext	L5_S1_Lat_Bending	L5_S1_axial_rotation	L4_L5_Flex_Ext	L4_L5_Lat_Bending	L4_L5_axial_rotation	L3_L4_Flex_Ext	L3_L4_Lat_Bending	L3_L4_axial_rotation	L2_L3_Flex_Ext	L2_L3_Lat_Bending	L2_L3_axial_rotation	L1_L2_Flex_Ext	L1_L2_Lat_Bending	L1_L2_axial_rotation	L1_T12_Flex_Ext	L1_T12_Lat_Bending	L1_T12_axial_rotation	Abs_r3	Abs_r2	Abs_r1	Abs_t1	Abs_t2	neck_flexion	neck_bending	neck_rotation	arm_flex_r	arm_add_r	arm_rot_r	elbow_flex_r	pro_sup_r	wrist_flex_r	wrist_dev_r	arm_flex_l	arm_add_l	arm_rot_l	elbow_flex_l	pro_sup_l	wrist_flex_l	wrist_dev_l
3.271186	-3.135681	-7.845411	96.519841	0.169685	1.000814	0.439221	-4.116346	-1.014964	-11.550203	2.928076	0.051105	34.347308	7.836906	0.000000	0.354842	2.306252	-11.601261	9.243713	0.161333	35.588409	12.197546	0.000000	-0.179141	0.037204	-0.002209	-0.332683	0.049481	-0.002347	-0.294311	0.090458	-0.002347	-0.204740	0.090458	-0.001933	-0.166351	0.075866	-0.001795	-0.102361	0.057629	-0.001657	-1.279588	0.420859	-0.012288	0.000000	0.000000	-10.052799	-4.217504	3.616265	7.788581	-10.751298	19.387217	114.388725	76.797952	-10.398168	4.803928	59.298533	-56.421407	47.818265	143.994699	77.068220	4.795273	13.193199
3.288136	-3.050465	-7.820146	96.055522	0.169520	1.001198	0.438918	-4.032111	-1.035848	-11.712981	3.061080	0.053426	34.375888	8.546392	0.000000	0.199613	2.293574	-11.846380	9.002643	0.157126	35.424005	12.099740	0.000000	-0.148743	0.039756	0.082989	-0.276231	0.052875	0.088176	-0.244370	0.096662	0.088176	-0.169998	0.096662	0.072616	-0.138123	0.081070	0.067429	-0.084992	0.061581	0.062242	-1.062456	0.449723	0.461561	0.000000	0.000000	-9.271627	-3.309663	2.996236	7.619980	-11.327553	18.020653	113.386450	77.809351	-9.531923	4.773967	57.154274	-56.039449	50.724095	141.994678	73.936466	6.519801	13.917889
3.305085	-3.019673	-7.791388	95.642197	0.169427	1.001610	0.438624	-3.968410	-1.099292	-11.891503	3.179461	0.055492	34.438291	9.203695	0.000000	0.061865	2.317546	-12.199921	8.766533	0.153005	35.390857	12.375393	0.000000	-0.120892	0.030336	0.175359	-0.224508	0.040347	0.186319	-0.198613	0.073758	0.186319	-0.138167	0.073758	0.153439	-0.112260	0.061861	0.142479	-0.069078	0.046990	0.131519	-0.863518	0.343164	0.975292	0.000000	0.000000	-8.502024	-2.092785	2.125784	7.489708	-11.793154	16.582908	112.260846	79.305010	-8.635410	5.079808	55.149179	-55.370748	53.819832	139.535533	71.761307	8.401028	14.630445
3.322034	-3.017483	-7.756080	95.318298	0.169277	1.002047	0.438402	-3.924301	-1.186219	-12.237958	3.295572	0.057519	34.546115	9.951851	0.000000	-0.082059	2.387259	-12.078615	8.477694	0.147964	35.342933	12.283325	0.000000	-0.095193	0.014376	0.254882	-0.176782	0.019121	0.270813	-0.156392	0.034955	0.270813	-0.108796	0.034955	0.223022	-0.088396	0.029317	0.207092	-0.054393	0.022269	0.191162	-0.679952	0.162630	1.417580	0.000000	0.000000	-7.769648	-0.649524	1.144099	7.485782	-12.187177	15.334239	110.953617	80.680601	-7.809155	5.538954	53.194159	-54.427577	56.936130	136.612185	70.505415	10.138680	15.167458
3.338983	-3.023864	-7.712268	95.120012	0.169005	1.002498	0.438296	-3.902353	-1.273276	-12.757427	3.407490	0.059472	34.691188	10.751599	0.000000	-0.216288	2.479611	-11.496066	8.169351	0.142582	35.294663	11.836718	0.000000	-0.071704	-0.004556	0.308534	-0.133161	-0.006059	0.327818	-0.117802	-0.011077	0.327818	-0.081950	-0.011077	0.269968	-0.066584	-0.009290	0.250684	-0.040971	-0.007057	0.231401	-0.512172	-0.051536	1.715976	0.000000	0.000000	-7.087044	0.934412	0.093066	7.611472	-12.525297	14.412069	109.470740	81.706990	-7.033560	6.120784	51.223860	-53.214682	59.890975	133.217109	69.717500	11.623867	15.508000
3.355932	-3.039654	-7.654689	95.060712	0.168591	1.002935	0.438357	-3.911157	-1.356837	-13.401388	3.507379	0.061215	34.854647	11.517359	0.000000	-0.343828	2.593246	-10.485340	7.850353	0.137015	35.247427	11.056930	0.000000	-0.052206	-0.026637	0.333003	-0.096953	-0.035427	0.353815	-0.085770	-0.064764	0.353815	-0.059667	-0.064764	0.291377	-0.048479	-0.054317	0.270565	-0.029831	-0.041260	0.249752	-0.372905	-0.301318	1.852062	0.000000	0.000000	-6.434246	2.691332	-1.018656	7.854767	-12.830477	13.940505	107.870447	82.077602	-6.364311	6.875133	49.293653	-51.722928	62.616015	129.378788	68.885645	12.735365	15.720506
3.372881	-3.030118	-7.576411	95.175624	0.167931	1.003365	0.438667	-3.948903	-1.399202	-14.192726	3.600241	0.062836	35.016783	12.237320	0.000000	-0.429315	2.682938	-9.183908	7.600563	0.132655	35.249694	10.099631	0.000000	-0.037377	-0.044587	0.316804	-0.069413	-0.059301	0.336604	-0.061406	-0.108410	0.336604	-0.042718	-0.108410	0.277204	-0.034708	-0.090923	0.257403	-0.021357	-0.069066	0.237603	-0.266979	-0.504382	1.761970	0.000000	0.000000	-5.831926	4.439363	-2.072763	8.243701	-13.120564	14.010685	106.091847	81.572494	-5.605778	7.548326	47.223936	-49.980578	64.840153	125.141754	67.959078	13.496151	15.624021
3.389831	-2.996631	-7.471634	95.419804	0.167000	1.003749	0.439167	-4.007676	-1.423013	-15.302083	3.729317	0.065089	35.234039	13.192278	0.000000	-0.530391	2.784630	-7.308455	7.337912	0.128071	35.190016	8.499700	0.000000	-0.028163	-0.058566	0.276269	-0.052302	-0.077892	0.293535	-0.046269	-0.142396	0.293535	-0.032188	-0.142396	0.241735	-0.026152	-0.119427	0.224468	-0.016092	-0.090718	0.207201	-0.201167	-0.662505	1.536523	0.000000	0.000000	-5.240468	6.201900	-3.191271	8.802172	-13.489485	14.723647	104.240219	80.008974	-4.958876	8.208488	45.085415	-47.961118	66.522378	120.581317	66.831125	13.859827	15.277812
3.406780	-2.927791	-7.347821	95.846756	0.165822	1.004035	0.439895	-4.104114	-1.382587	-16.393392	3.827487	0.066802	35.407889	13.900087	0.000000	-0.576180	2.833307	-5.408172	7.191077	0.125508	35.210360	6.978922	0.000000	-0.023954	-0.066983	0.197007	-0.044486	-0.089087	0.209320	-0.039355	-0.162862	0.209320	-0.027377	-0.162862	0.172381	-0.022244	-0.136591	0.160068	-0.013688	-0.103756	0.147755	-0.171104	-0.757723	1.095695	0.000000	0.000000	-4.603757	7.888805	-4.253248	9.582417	-13.887543	16.004458	102.223174	78.007765	-4.103170	8.618467	42.875977	-45.751757	67.589052	115.829874	65.314066	13.833170	14.615330
3.423729	-2.833997	-7.209731	96.453588	0.164436	1.004218	0.440801	-4.238961	-1.282930	-17.446669	3.885986	0.067823	35.529711	14.342430	0.000000	-0.560050	2.830946	-3.584523	7.182893	0.125365	35.298359	5.621149	0.000000	-0.023543	-0.070166	0.073754	-0.043721	-0.093321	0.078364	-0.038678	-0.170602	0.078364	-0.026907	-0.170602	0.064535	-0.021862	-0.143083	0.059925	-0.013452	-0.108687	0.055316	-0.168162	-0.793734	0.410199	0.000000	0.000000	-3.958963	9.404136	-5.167148	10.628961	-14.298298	17.824059	100.014466	76.437860	-2.995231	8.611644	40.563005	-43.459161	67.991701	110.997577	63.259180	13.490665	13.595056
3.440678	-2.707768	-7.057289	97.211190	0.162888	1.004274	0.441843	-4.412098	-1.114117	-18.354575	3.897398	0.068022	35.583910	14.435084	0.000000	-0.491695	2.766936	-1.888952	7.303554	0.127471	35.447581	4.460210	0.000000	-0.026841	-0.066933	-0.086506	-0.049846	-0.089021	-0.091912	-0.044097	-0.162741	-0.091912	-0.030676	-0.162741	-0.075692	-0.024924	-0.136490	-0.070286	-0.015337	-0.103679	-0.064879	-0.191720	-0.757160	-0.481118	0.000000	0.000000	-3.283423	10.697598	-5.907835	11.930571	-14.741632	20.149827	97.678114	75.217390	-1.580182	8.170044	38.224605	-41.124627	67.797816	106.108807	60.847876	12.947450	12.210771
